<svg width="27" height="29" viewBox="0 0 27 29" fill="none" xmlns="http://www.w3.org/2000/svg">
<path d="M10.3227 23.4331C4.37792 25.2166 4.37792 20.4607 2 19.8662M18.6454 27V22.3987C18.69 21.8318 18.6134 21.2619 18.4207 20.7268C18.228 20.1918 17.9236 19.7039 17.5278 19.2955C21.2611 18.8794 25.1847 17.4645 25.1847 10.9728C25.1844 9.31284 24.5459 7.71651 23.4013 6.51423C23.9433 5.06193 23.9049 3.45664 23.2943 2.03186C23.2943 2.03186 21.8913 1.61572 18.6454 3.79152C15.9203 3.05296 13.0478 3.05296 10.3227 3.79152C7.07686 1.61572 5.67388 2.03186 5.67388 2.03186C5.06321 3.45664 5.02488 5.06193 5.56688 6.51423C4.41374 7.72542 3.77455 9.33618 3.78344 11.0085C3.78344 17.4527 7.707 18.8675 11.4403 19.3312C11.0492 19.7354 10.7475 20.2175 10.5549 20.746C10.3624 21.2745 10.2833 21.8376 10.3227 22.3987V27" stroke="#A0AEC0" stroke-width="2.37792" stroke-linecap="round" stroke-linejoin="round"/>
</svg>
