<svg width="35" height="28" viewBox="0 0 35 28" fill="#A0AEC0" xmlns="http://www.w3.org/2000/svg">
<path d="M5.08333 3.19C4.04471 3.19 3.19 4.04471 3.19 5.08333V23.5833C3.19 24.6219 4.04471 25.4766 5.08333 25.4766H29.75C30.7886 25.4766 31.6433 24.6219 31.6433 23.5833V5.08333C31.6433 4.04471 30.7886 3.19 29.75 3.19H5.08333ZM0.809998 5.08333C0.809998 2.73028 2.73028 0.809998 5.08333 0.809998H29.75C32.103 0.809998 34.0233 2.73028 34.0233 5.08333V23.5833C34.0233 25.9363 32.103 27.8566 29.75 27.8566H5.08333C2.73028 27.8566 0.809998 25.9363 0.809998 23.5833V5.08333Z" fill="#A0AEC0"/>
<path d="M1.02511 4.4009C1.402 3.86249 2.144 3.73154 2.68241 4.10844L17.4166 14.4224L32.1509 4.10844C32.6893 3.73154 33.4313 3.86249 33.8082 4.4009C34.1851 4.93932 34.0541 5.68132 33.5157 6.05821L18.0991 16.8499C17.6893 17.1367 17.144 17.1367 16.7342 16.8499L1.31757 6.05821C0.779158 5.68132 0.648217 4.93932 1.02511 4.4009Z" fill="#A0AEC0"/>
</svg>
